<svg width="37" height="35" viewBox="0 0 37 35" fill="none" xmlns="http://www.w3.org/2000/svg">
<g clip-path="url(#clip0_78_207)">
<path d="M10.7973 25.374C10.9334 26.2649 11.0626 27.1237 11.1964 28.0032C11.328 28.0032 11.4364 28.0032 11.5471 28.0032C17.9726 28.0032 24.398 28.0032 30.8258 28.0032C32.7038 28.0032 34.192 29.3842 34.3581 31.2829C34.5103 33.0075 33.2022 34.6702 31.4257 34.9473C30.0391 35.1649 28.8739 34.7137 28.0272 33.6006C27.1874 32.4944 27.0882 31.2783 27.6465 30.0095C27.6788 29.9385 27.7134 29.8698 27.7573 29.7759C23.6367 29.7759 19.5368 29.7759 15.407 29.7759C15.4462 29.8583 15.4855 29.9385 15.5224 30.0186C16.5421 32.1738 15.1279 34.7114 12.7469 34.9679C11.2426 35.1305 10.0567 34.5419 9.29534 33.2617C8.53629 31.9837 8.64011 30.692 9.46146 29.4507C9.53529 29.3407 9.57913 29.1735 9.55836 29.043C9.26997 27.0963 8.97234 25.1495 8.67241 23.2051C8.34479 21.066 8.01487 18.9246 7.68725 16.7854C7.3804 14.77 7.07585 12.7523 6.769 10.7368C6.48983 8.90688 6.20836 7.07924 5.92688 5.24931C5.76769 4.16601 5.59927 3.085 5.44469 2.0017C5.41931 1.81619 5.36163 1.75206 5.16783 1.75435C3.75353 1.76122 2.33924 1.75893 0.924951 1.75664C0.387382 1.75435 0.0113138 1.40623 -0.000222048 0.91611C-0.0117579 0.41683 0.352774 0.0114514 0.862658 0.00687083C2.63456 -0.00229028 4.40416 -0.00229028 6.17606 0.00687083C6.63749 0.0091611 6.96742 0.316058 7.04355 0.794726C7.19813 1.75893 7.33887 2.72543 7.48653 3.68963C7.60189 4.44543 7.71724 5.19893 7.82568 5.95472C7.84414 6.08755 7.8949 6.15626 8.03794 6.13794C8.10023 6.13107 8.16483 6.13565 8.22943 6.13565C17.4673 6.13565 26.7052 6.13565 35.9431 6.13565C36.2107 6.13565 36.4668 6.14939 36.6814 6.33261C36.9629 6.5708 37.0367 6.88228 36.9836 7.2304C36.5776 9.90086 36.1692 12.569 35.7654 15.2395C35.424 17.5046 35.0848 19.772 34.7457 22.037C34.6188 22.8776 34.4919 23.7181 34.365 24.5586C34.2819 25.0968 33.9382 25.3717 33.3498 25.3717C25.9946 25.3717 18.6394 25.3717 11.2841 25.3717C11.1365 25.374 10.9865 25.374 10.7973 25.374ZM8.13945 7.90145C8.1533 8.02284 8.16022 8.11674 8.17406 8.21064C8.34018 9.30081 8.51091 10.3887 8.67702 11.4789C9.00233 13.6111 9.32303 15.7456 9.64834 17.8779C9.92751 19.7078 10.2113 21.5355 10.4858 23.3654C10.5135 23.5578 10.5689 23.6265 10.7765 23.6265C17.9887 23.6196 25.2032 23.6219 32.4154 23.6219C32.51 23.6219 32.6023 23.6219 32.7154 23.6219C33.509 18.3726 34.2981 13.1462 35.0918 7.90374C26.0984 7.90145 17.1328 7.90145 8.13945 7.90145ZM30.835 29.7553C29.8637 29.753 29.0793 30.5317 29.0793 31.4936C29.0793 32.4647 29.8776 33.2594 30.8466 33.2502C31.7948 33.2411 32.5885 32.4578 32.5977 31.5165C32.6092 30.5523 31.8133 29.7553 30.835 29.7553ZM10.5781 31.4776C10.5666 32.4463 11.3556 33.2434 12.3316 33.2479C13.2867 33.2525 14.0873 32.4601 14.0942 31.505C14.1012 30.5569 13.319 29.7644 12.3708 29.7553C11.3764 29.7438 10.5897 30.4996 10.5781 31.4776Z" fill="#461218"/>
</g>
<defs>
<clipPath id="clip0_78_207">
<rect width="37" height="35" fill="white"/>
</clipPath>
</defs>
</svg>
