<svg width="28" height="37" viewBox="0 0 28 37" fill="none" xmlns="http://www.w3.org/2000/svg">
<g clip-path="url(#clip0_80_2)">
<path d="M24.3487 22.3875C27.1609 27.4397 28.0834 32.8514 26.899 37.0001C18.3047 37.0001 9.6776 37.0001 0.848176 37.0001C-0.1785 31.8361 0.794611 27.0499 3.21697 22.315C0.369061 21.62 -0.130886 19.6438 0.0208833 17.0815C0.193484 14.1898 0.166701 11.2739 0.0208833 8.37914C-0.0832723 6.32745 0.892815 5.25174 2.58311 4.59C3.21102 4.34525 3.86571 4.14582 4.52636 4.02194C6.66899 3.6261 8.53784 2.9281 10.2966 1.39311C12.7695 -0.770387 15.9597 -0.256708 18.5427 1.87959C19.5188 2.68637 20.8133 3.14264 22.0185 3.61099C23.2029 4.07028 24.4855 4.26367 25.6729 4.71087C27.2263 5.29405 28.0358 6.38184 27.9673 8.20993C27.8572 11.1077 27.8066 14.0205 27.9762 16.9153C28.134 19.6529 27.6489 21.7922 24.3487 22.3875ZM26.1014 35.6978C26.3455 31.54 25.9021 27.7267 23.941 24.2548C23.6047 23.6596 22.5602 23.0099 21.9561 23.1066C16.5667 23.9738 11.2102 23.9859 5.83277 23.025C5.23462 22.9193 4.19008 23.3786 3.88952 23.8983C1.75879 27.5817 1.51477 31.6186 1.857 35.8126C9.70735 35.8126 17.3583 35.8126 25.0093 35.8096C25.298 35.8096 25.5866 35.7522 26.1014 35.6978ZM8.23132 11.017C8.05574 15.6825 10.618 19.2359 13.8617 19.0304C17.1381 18.825 19.3998 15.2383 18.8671 11.017C15.3853 11.017 11.8946 11.017 8.23132 11.017ZM20.7955 10.7874C20.114 13.2561 19.4623 15.619 18.8254 17.9366C20.0991 18.8522 21.4888 19.8674 22.8964 20.8615C24.0273 21.6623 26.5448 20.7316 26.5925 19.3658C26.7115 15.9907 26.6311 12.6064 26.6311 9.17988C24.4707 9.77514 22.6018 10.2888 20.7955 10.7874ZM1.36598 9.13758C1.36598 12.5883 1.28861 15.9181 1.40169 19.2419C1.45228 20.7709 3.5711 21.5475 4.78526 20.6107C6.08572 19.6076 7.38022 18.6014 8.40987 17.8006C7.74625 15.3561 7.12132 13.0536 6.46365 10.6333C4.97571 10.1982 3.27649 9.6996 1.36598 9.13758ZM7.17786 7.82618C7.22548 6.81393 7.27904 5.74427 7.34451 4.36036C5.13046 5.16714 3.17829 5.87722 0.967211 6.68098C5.47268 10.9113 22.6613 10.9052 27.0686 6.62357C24.7742 5.84096 22.7774 5.15807 20.6883 4.44497C20.6883 5.89233 20.6883 6.91969 20.6883 7.91079C16.8018 9.11642 10.7459 9.08923 7.17786 7.82618ZM8.53486 7.32761C12.2458 7.32761 15.799 7.32761 19.3403 7.32761C19.4444 3.96755 17.3345 1.55023 14.433 1.35383C11.2548 1.13929 8.85923 3.37833 8.53486 7.32761ZM5.46078 22.0309C11.228 22.0309 16.4447 22.0309 21.6585 22.0309C19.8015 20.1515 18.2362 18.0695 15.3407 19.8886C14.4539 20.4446 12.8082 20.1847 11.6685 19.807C8.84733 18.8642 8.07658 18.9821 5.46078 22.0309Z" fill="#461218"/>
</g>
<defs>
<clipPath id="clip0_80_2">
<rect width="28" height="37" fill="white"/>
</clipPath>
</defs>
</svg>
